<?xml version="1.0" encoding="UTF-8" standalone="no"?>
<svg
   viewBox="0 0 768 768"
   version="1.1"
   id="svg34"
   sodipodi:docname="techpay-inactive.svg"
   width="768"
   height="768"
   inkscape:version="1.1 (c68e22c387, 2021-05-23)"
   xmlns:inkscape="http://www.inkscape.org/namespaces/inkscape"
   xmlns:sodipodi="http://sodipodi.sourceforge.net/DTD/sodipodi-0.dtd"
   xmlns="http://www.w3.org/2000/svg"
   xmlns:svg="http://www.w3.org/2000/svg"
   xmlns:rdf="http://www.w3.org/1999/02/22-rdf-syntax-ns#"
   xmlns:cc="http://creativecommons.org/ns#"
   xmlns:dc="http://purl.org/dc/elements/1.1/">
  <sodipodi:namedview
     id="namedview36"
     pagecolor="#ffffff"
     bordercolor="#666666"
     borderopacity="1.0"
     inkscape:pageshadow="2"
     inkscape:pageopacity="0.0"
     inkscape:pagecheckerboard="0"
     showgrid="false"
     fit-margin-top="0"
     fit-margin-left="0"
     fit-margin-right="0"
     fit-margin-bottom="0"
     inkscape:zoom="0.81118881"
     inkscape:cx="139.9181"
     inkscape:cy="377.84052"
     inkscape:window-width="1920"
     inkscape:window-height="991"
     inkscape:window-x="-9"
     inkscape:window-y="-9"
     inkscape:window-maximized="1"
     inkscape:current-layer="svg34"
     width="512px"
     scale-x="1" />
  <defs
     id="defs4">
    <inkscape:path-effect
       effect="fillet_chamfer"
       id="path-effect962"
       is_visible="true"
       lpeversion="1"
       satellites_param="F,1,0,1,0,0.2,0,1 @ F,1,0,1,0,0.2,0,1 @ F,1,0,1,0,0.2,0,1 @ F,1,0,1,0,0.2,0,1"
       unit="px"
       method="auto"
       mode="F"
       radius="20"
       chamfer_steps="1"
       flexible="true"
       use_knot_distance="true"
       apply_no_radius="true"
       apply_with_radius="true"
       only_selected="false"
       hide_knots="false" />
    <style
       id="style2">.cls-1{fill:#0f1932;stroke:#000;stroke-miterlimit:10;}.cls-2{fill:#939393;}.cls-3{fill:#5f5b60;}.cls-4{fill:#191818;}.cls-5{fill:#157cd9;}.cls-6{fill:#143e8e;}.cls-7{fill:#1459af;}.cls-8{fill:#929292;}.cls-9{fill:#5e5a5f;}</style>
  </defs>
  <title
     id="title6">TP Theme</title>
  <path
     style="fill:#ffffff;fill-opacity:1;fill-rule:evenodd;stroke:#5f5b60;stroke-width:4;stroke-miterlimit:4;stroke-dasharray:none;stroke-opacity:1"
     id="rect880"
     width="757.57758"
     height="755.13666"
     x="5.6658821"
     y="6.4084625"
     inkscape:path-effect="#path-effect962"
     d="M 157.1814,6.4084625 H 612.21613 A 151.02733,151.02733 45 0 1 763.24346,157.43579 V 610.02961 A 151.51552,151.51552 135 0 1 611.72794,761.54512 l -455.03473,0 A 151.02733,151.02733 45 0 1 5.6658821,610.51779 V 157.92398 A 151.51552,151.51552 135 0 1 157.1814,6.4084625 Z"
     sodipodi:type="rect" />
  <g
     id="Layer_5"
     data-name="Layer 5"
     transform="translate(-112.99931,-113.38724)">
    <g
       id="Layer_1"
       data-name="Layer 1">
      <polygon
         class="cls-2"
         points="717.16,367.03 789.38,330.92 500.5,150.37 211.62,330.92 283.84,367.03 500.5,222.59 "
         id="polygon11" />
      <polygon
         class="cls-3"
         points="283.84,619.8 283.84,367.03 211.62,330.92 211.62,655.91 500.5,850.63 500.5,764.24 "
         id="polygon13" />
      <polygon
         class="cls-4"
         points="717.16,619.8 717.16,367.03 789.38,330.92 789.38,655.91 500.5,850.63 500.5,764.24 "
         id="polygon15" />
      <polygon
         class="cls-5"
         points="500.5,475.36 283.84,619.8 500.5,764.24 717.16,619.8 "
         id="polygon17" />
      <polygon
         class="cls-6"
         points="500.5,222.59 500.5,475.36 283.84,619.8 283.84,367.03 "
         id="polygon19" />
      <polygon
         class="cls-7"
         points="500.5,222.59 496.44,478.06 717.16,619.8 717.16,367.03 "
         id="polygon21" />
    </g>
    <g
       id="Layer_3"
       data-name="Layer 3">
      <polygon
         class="cls-8"
         points="604.82,352.3 658.14,387.85 496.49,475.36 496.49,413.83 "
         id="polygon24" />
      <polygon
         class="cls-8"
         points="389.32,352.3 336,387.85 497.65,475.36 497.65,413.83 "
         id="polygon26" />
      <polygon
         class="cls-9"
         points="497.65,685.86 497.65,475.36 336,387.85 336,457.27 437.89,517.1 437.89,648.61 "
         id="polygon28" />
      <polygon
         class="cls-4"
         points="496.49,685.86 496.49,475.36 658.13,387.85 658.13,457.28 556.24,517.1 556.24,648.61 "
         id="polygon30" />
    </g>
  </g>
  <metadata
     id="metadata853">
    <rdf:RDF>
      <cc:Work
         rdf:about="">
        <dc:title>TP Theme</dc:title>
      </cc:Work>
    </rdf:RDF>
  </metadata>
</svg>
